<mxfile host="app.diagrams.net" modified="2024-03-29T19:55:10.031Z" agent="Mozilla/5.0 (Windows NT 10.0; Win64; x64) AppleWebKit/537.36 (KHTML, like Gecko) Chrome/123.0.0.0 Safari/537.36" version="24.2.1" etag="foTkl-II3yZNBlQYCyhU" type="github">
  <diagram name="Page-1" id="PH2xnNUZQ7FwBbdWNFzj">
    <mxGraphModel>
      <root>
        <mxCell id="0" />
        <mxCell id="1" parent="0" />
      </root>
    </mxGraphModel>
  </diagram>
</mxfile>
